<svg width="52" height="45" viewBox="0 0 52 45" fill="none" xmlns="http://www.w3.org/2000/svg">
<path d="M3.86089 13.084C3.30089 13.084 2.79689 12.988 2.34889 12.796C1.90089 12.596 1.54889 12.316 1.29289 11.956C1.03689 11.596 0.908891 11.176 0.908891 10.696H2.37289C2.40489 11.056 2.54489 11.352 2.79289 11.584C3.04889 11.816 3.40489 11.932 3.86089 11.932C4.33289 11.932 4.70089 11.82 4.96489 11.596C5.22889 11.364 5.36089 11.068 5.36089 10.708C5.36089 10.428 5.27689 10.2 5.10889 10.024C4.94889 9.848 4.74489 9.712 4.49689 9.616C4.25689 9.52 3.92089 9.416 3.48889 9.304C2.94489 9.16 2.50089 9.016 2.15689 8.872C1.82089 8.72 1.53289 8.488 1.29289 8.176C1.05289 7.864 0.932891 7.448 0.932891 6.928C0.932891 6.448 1.05289 6.028 1.29289 5.668C1.53289 5.308 1.86889 5.032 2.30089 4.84C2.73289 4.648 3.23289 4.552 3.80089 4.552C4.60889 4.552 5.26889 4.756 5.78089 5.164C6.30089 5.564 6.58889 6.116 6.64489 6.82H5.13289C5.10889 6.516 4.96489 6.256 4.70089 6.04C4.43689 5.824 4.08889 5.716 3.65689 5.716C3.26489 5.716 2.94489 5.816 2.69689 6.016C2.44889 6.216 2.32489 6.504 2.32489 6.88C2.32489 7.136 2.40089 7.348 2.55289 7.516C2.71289 7.676 2.91289 7.804 3.15289 7.9C3.39289 7.996 3.72089 8.1 4.13689 8.212C4.68889 8.364 5.13689 8.516 5.48089 8.668C5.83289 8.82 6.12889 9.056 6.36889 9.376C6.61689 9.688 6.74089 10.108 6.74089 10.636C6.74089 11.06 6.62489 11.46 6.39289 11.836C6.16889 12.212 5.83689 12.516 5.39689 12.748C4.96489 12.972 4.45289 13.084 3.86089 13.084ZM9.72308 4.66V13H8.35508V4.66H9.72308ZM12.8871 11.896H15.7071V13H11.5191V4.66H12.8871V11.896ZM18.2192 11.896H21.0392V13H16.8512V4.66H18.2192V11.896ZM23.5512 4.66V13H22.1832V4.66H23.5512ZM24.8913 8.812C24.8913 7.996 25.0793 7.264 25.4553 6.616C25.8393 5.968 26.3553 5.464 27.0033 5.104C27.6593 4.736 28.3753 4.552 29.1513 4.552C30.0393 4.552 30.8273 4.772 31.5153 5.212C32.2113 5.644 32.7153 6.26 33.0273 7.06H31.3833C31.1673 6.62 30.8673 6.292 30.4833 6.076C30.0993 5.86 29.6553 5.752 29.1513 5.752C28.5993 5.752 28.1073 5.876 27.6753 6.124C27.2433 6.372 26.9033 6.728 26.6553 7.192C26.4153 7.656 26.2953 8.196 26.2953 8.812C26.2953 9.428 26.4153 9.968 26.6553 10.432C26.9033 10.896 27.2433 11.256 27.6753 11.512C28.1073 11.76 28.5993 11.884 29.1513 11.884C29.6553 11.884 30.0993 11.776 30.4833 11.56C30.8673 11.344 31.1673 11.016 31.3833 10.576H33.0273C32.7153 11.376 32.2113 11.992 31.5153 12.424C30.8273 12.856 30.0393 13.072 29.1513 13.072C28.3673 13.072 27.6513 12.892 27.0033 12.532C26.3553 12.164 25.8393 11.656 25.4553 11.008C25.0793 10.36 24.8913 9.628 24.8913 8.812ZM38.4325 13.084C37.6565 13.084 36.9405 12.904 36.2845 12.544C35.6365 12.176 35.1205 11.668 34.7365 11.02C34.3605 10.364 34.1725 9.628 34.1725 8.812C34.1725 7.996 34.3605 7.264 34.7365 6.616C35.1205 5.968 35.6365 5.464 36.2845 5.104C36.9405 4.736 37.6565 4.552 38.4325 4.552C39.2165 4.552 39.9325 4.736 40.5805 5.104C41.2365 5.464 41.7525 5.968 42.1285 6.616C42.5045 7.264 42.6925 7.996 42.6925 8.812C42.6925 9.628 42.5045 10.364 42.1285 11.02C41.7525 11.668 41.2365 12.176 40.5805 12.544C39.9325 12.904 39.2165 13.084 38.4325 13.084ZM38.4325 11.896C38.9845 11.896 39.4765 11.772 39.9085 11.524C40.3405 11.268 40.6765 10.908 40.9165 10.444C41.1645 9.972 41.2885 9.428 41.2885 8.812C41.2885 8.196 41.1645 7.656 40.9165 7.192C40.6765 6.728 40.3405 6.372 39.9085 6.124C39.4765 5.876 38.9845 5.752 38.4325 5.752C37.8805 5.752 37.3885 5.876 36.9565 6.124C36.5245 6.372 36.1845 6.728 35.9365 7.192C35.6965 7.656 35.5765 8.196 35.5765 8.812C35.5765 9.428 35.6965 9.972 35.9365 10.444C36.1845 10.908 36.5245 11.268 36.9565 11.524C37.3885 11.772 37.8805 11.896 38.4325 11.896ZM50.8907 13H49.5227L45.4067 6.772V13H44.0387V4.648H45.4067L49.5227 10.864V4.648H50.8907V13Z" fill="#C1C5D6"/>
<mask id="mask0_1016_2" style="mask-type:luminance" maskUnits="userSpaceOnUse" x="0" y="15" width="51" height="30">
<path d="M50.1428 15L50.1428 45L-3.05176e-05 45L-3.05176e-05 15L50.1428 15Z" fill="white"/>
</mask>
<g mask="url(#mask0_1016_2)">
<path d="M48.9285 19.6027L5.71648 19.6027V15.3438C5.71648 15.2501 5.683 15.1697 5.61604 15.105C5.54908 15.038 5.47095 15.0045 5.3772 15.0045H0.339252C0.245502 15.0045 0.165146 15.038 0.0981827 15.105C0.0312195 15.1697 -3.05176e-05 15.2501 -3.05176e-05 15.3438V17.7277C-3.05176e-05 17.8215 0.0312195 17.9018 0.0981827 17.9666C0.165146 18.0335 0.245502 18.067 0.339252 18.067L3.07363 18.067L3.07363 44.6563C3.07363 44.7478 3.10711 44.8282 3.17184 44.8951C3.23881 44.9599 3.31916 44.9934 3.41291 44.9934H5.37943C5.47318 44.9934 5.55354 44.9599 5.6205 44.8951C5.68747 44.8282 5.71872 44.7478 5.71872 44.6563V41.2255H8.73658V44.6563C8.73658 44.7478 8.77006 44.8282 8.83479 44.8951C8.90175 44.9599 8.98211 44.9934 9.07586 44.9934L37.6808 44.9934C37.7745 44.9934 37.8526 44.9599 37.9196 44.8951C37.9866 44.8282 38.0201 44.7478 38.0201 44.6563V41.2255H40.2009V44.6563C40.2009 44.7478 40.2343 44.8282 40.3013 44.8951C40.366 44.9599 40.4464 44.9934 40.5401 44.9934H46.2611C46.3549 44.9934 46.4352 44.9599 46.5 44.8951C46.5669 44.8282 46.6004 44.7478 46.6004 44.6563V41.2255H48.9285C49.0893 41.2255 49.2433 41.1943 49.3928 41.134C49.5424 41.0715 49.6741 40.9844 49.7879 40.8706C49.9018 40.7568 49.9888 40.6251 50.0513 40.4777C50.1138 40.3282 50.1428 40.1742 50.1428 40.0134L50.1428 20.817C50.1428 20.6563 50.1138 20.5001 50.0513 20.3527C49.9888 20.2032 49.9018 20.0737 49.7879 19.9599C49.6741 19.846 49.5424 19.7567 49.3928 19.6965C49.2433 19.634 49.0893 19.6027 48.9285 19.6027ZM3.7522 44.317L3.7522 17.7277C3.7522 17.634 3.71872 17.5536 3.65175 17.4889C3.58702 17.4219 3.50666 17.3884 3.41291 17.3884H0.678539V15.6809H5.03791L5.04015 44.317H3.7522ZM41.8125 20.2813L39.8437 22.2434L13.7232 22.2434L11.7544 20.2813L41.8125 20.2813ZM11.529 40.5492L13.5982 38.4844L39.7209 38.4844L41.7901 40.5492L11.529 40.5492ZM9.41515 41.2478H11.596V44.317H9.41515V41.2478ZM12.2745 41.2478H14.4576V44.317H12.2745V41.2478ZM15.1361 41.2478H17.3169V44.317H15.1361V41.2478ZM17.9955 41.2478H20.1785L20.1785 44.317H17.9955V41.2478ZM20.8571 41.2478L23.0379 41.2478L23.0379 44.317L20.8571 44.317L20.8571 41.2478ZM23.7165 41.2478H25.8995L25.8995 44.317H23.7165L23.7165 41.2478ZM26.5781 41.2478H28.7589L28.7589 44.317H26.5781L26.5781 41.2478ZM29.4375 41.2478H31.6205L31.6205 44.317H29.4375L29.4375 41.2478ZM32.2991 41.2478H34.4799V44.317H32.2991L32.2991 41.2478ZM37.3415 44.317H35.1584V41.2478H37.3415V44.317ZM40.8794 41.2478H43.0602V44.317H40.8794V41.2478ZM45.9218 44.317H43.741V41.2478H45.9218V44.317ZM49.4643 40.0134C49.4643 40.1608 49.4129 40.288 49.308 40.3929C49.2031 40.4956 49.0759 40.5492 48.9285 40.5492H42.6696C42.6562 40.4822 42.625 40.4242 42.5759 40.3773L40.1004 37.9085C40.0357 37.8416 39.9553 37.8081 39.8616 37.8081L13.4576 37.8081C13.3638 37.8081 13.2835 37.8416 13.2165 37.9085L10.866 40.2523C10.7835 40.3349 10.7522 40.4331 10.7723 40.5492H5.71872L5.71872 20.2813H10.8125C10.8281 20.3059 10.846 20.3304 10.866 20.3527L13.3415 22.8215C13.4085 22.8862 13.4866 22.9197 13.5803 22.9197L39.9843 22.9197C40.0781 22.9197 40.1584 22.8862 40.2254 22.8215L42.5759 20.4755C42.6317 20.4219 42.6629 20.355 42.6718 20.2813H48.9285C49.0759 20.2813 49.2031 20.3326 49.308 20.4376C49.4129 20.5425 49.4643 20.6675 49.4643 20.817L49.4643 40.0134Z" fill="#5CE1E6"/>
</g>
<path d="M12.799 28.0625C12.9329 26.5291 13.4061 25.4777 14.2231 24.9063C14.3526 24.8148 14.3972 24.6942 14.3593 24.5424C14.3213 24.3907 14.2253 24.3036 14.0691 24.2835C13.8035 24.25 13.5378 24.2322 13.2677 24.2322C12.8526 24.2322 12.4419 24.2746 12.0356 24.3594C11.8749 24.3884 11.7432 24.4666 11.6427 24.5938C10.8258 25.5804 10.8369 26.9286 11.674 28.6384C11.9954 28.3416 12.3704 28.1496 12.799 28.0625ZM12.1673 25.0268L12.1695 25.0224H12.1718C12.5177 24.9509 12.8682 24.913 13.2231 24.9085C12.6807 25.5447 12.3302 26.4264 12.174 27.5424C12.107 27.5692 12.0423 27.5982 11.9753 27.6273C11.5736 26.5201 11.6383 25.663 12.1673 25.0268Z" fill="#5CE1E6"/>
<path d="M10.9107 30.279C10.9263 29.8438 11.0558 29.442 11.2969 29.0781C10.3058 27.9018 9.89509 26.8214 10.067 25.8415C10.0759 25.7924 10.0737 25.7411 10.0603 25.692C10.0469 25.6429 10.0223 25.6004 9.99107 25.5603C9.95759 25.5223 9.91741 25.4911 9.87054 25.471C9.82589 25.4487 9.77679 25.4375 9.72545 25.4375C9.64732 25.4375 9.57813 25.4621 9.51786 25.5112C8.97098 25.9286 8.50893 26.4241 8.1317 26.9978C8.03795 27.1317 8.00223 27.279 8.02232 27.442C8.14286 28.7143 9.10491 29.6607 10.9107 30.279ZM8.69866 27.3705C8.89286 27.0759 9.11384 26.8013 9.35938 26.5513C9.42857 27.3817 9.8058 28.2522 10.4866 29.1518C10.4576 29.2165 10.4308 29.2835 10.4085 29.3504C9.33705 28.8504 8.77455 28.2009 8.69643 27.3772V27.3728L8.69866 27.3705Z" fill="#5CE1E6"/>
<path d="M11.5334 31.9777C11.2366 31.6563 11.0446 31.2835 10.9553 30.8549C9.41961 30.7232 8.3638 30.25 7.79014 29.4353C7.72318 29.3371 7.62943 29.288 7.51113 29.288C7.42407 29.288 7.34818 29.3147 7.28122 29.3728C7.21648 29.4308 7.17854 29.5022 7.16738 29.5893C7.07586 30.2679 7.10041 30.9442 7.24327 31.6161C7.27005 31.7768 7.35041 31.9063 7.47764 32.0067C7.96648 32.4107 8.54238 32.6116 9.20979 32.6116C9.89059 32.6116 10.6651 32.3996 11.5334 31.9777ZM7.90845 31.4844V31.4799C7.83479 31.1339 7.79684 30.7857 7.79461 30.4331C8.43077 30.9732 9.3147 31.3237 10.4352 31.4777C10.4598 31.5447 10.4888 31.6094 10.5201 31.6741C10.0379 31.846 9.59818 31.9353 9.20979 31.9353C8.70309 31.9353 8.27675 31.788 7.91068 31.4866L7.90845 31.4844Z" fill="#5CE1E6"/>
<path d="M14.5804 28.404C15.5871 27.5603 16.5224 27.1384 17.3862 27.1384C17.5336 27.1384 17.6809 27.1496 17.826 27.1764C17.8461 27.1786 17.8684 27.1808 17.8885 27.1808C18.0313 27.1786 18.134 27.1139 18.1943 26.9866C18.2568 26.8594 18.2456 26.7411 18.1586 26.6272C17.7389 26.0826 17.2434 25.6228 16.6675 25.2456C16.5559 25.1697 16.4354 25.1317 16.3014 25.1317C16.2746 25.1317 16.2501 25.1339 16.2233 25.1362C14.9465 25.2567 13.9979 26.2188 13.3773 28.0179C13.8148 28.0335 14.2144 28.163 14.5804 28.404ZM16.288 25.8103H16.2903L16.2925 25.8125C16.5894 26.0045 16.8639 26.2255 17.1162 26.471C16.2836 26.538 15.4086 26.9152 14.5068 27.596C14.4421 27.567 14.3751 27.5402 14.3081 27.5156C14.8081 26.4487 15.4599 25.8884 16.288 25.8103Z" fill="#5CE1E6"/>
<path d="M13.7566 32.6942C13.6227 34.2254 13.1473 35.279 12.3325 35.8504C12.2031 35.9397 12.1584 36.0603 12.1964 36.212C12.2321 36.3661 12.3303 36.4509 12.4866 36.471C12.7522 36.5067 13.0178 36.5245 13.2857 36.5245C13.7008 36.5223 14.1138 36.4799 14.52 36.3951C14.6807 36.3683 14.8102 36.2879 14.9107 36.1607C15.7299 35.1741 15.7187 33.8259 14.8816 32.1183C14.5602 32.4129 14.1852 32.6049 13.7566 32.6942ZM14.3883 35.7299L14.3861 35.7321H14.3839C14.0357 35.8058 13.6874 35.8437 13.3325 35.846C13.8749 35.212 14.2254 34.3303 14.3816 33.212C14.4464 33.1875 14.5133 33.1585 14.5781 33.1272C14.9799 34.2366 14.9174 35.0915 14.3883 35.7299Z" fill="#5CE1E6"/>
<path d="M15.645 30.4755C15.6272 30.913 15.4977 31.3125 15.2566 31.6764C16.2499 32.8549 16.6606 33.9331 16.4888 34.913C16.4798 34.9643 16.4821 35.0134 16.4955 35.0625C16.5089 35.1116 16.5312 35.1563 16.5647 35.1942C16.5981 35.2344 16.6383 35.2634 16.683 35.2857C16.7298 35.3058 16.7789 35.317 16.8303 35.317C16.9084 35.317 16.9776 35.2924 17.0379 35.2456C17.5847 34.8281 18.0468 34.3326 18.424 33.7567C18.5178 33.6228 18.5535 33.4755 18.5334 33.3147C18.4129 32.0402 17.4486 31.096 15.645 30.4755ZM17.8571 33.3839C17.6629 33.6808 17.4419 33.9531 17.1941 34.2054C17.1272 33.3728 16.7499 32.5022 16.0669 31.6049C16.0959 31.538 16.1227 31.4732 16.1472 31.404C17.2187 31.904 17.7789 32.5558 17.8593 33.3795V33.3817L17.8571 33.3839Z" fill="#5CE1E6"/>
<path d="M19.0758 28.7478C18.5892 28.346 18.0111 28.1451 17.3459 28.1451C16.6651 28.1451 15.8883 28.355 15.0222 28.7791C15.3191 29.0983 15.5111 29.4733 15.6003 29.9018C17.1361 30.0335 18.1919 30.5067 18.7655 31.3215C18.8325 31.4197 18.9262 31.4666 19.0445 31.4666C19.1316 31.4688 19.2075 31.4398 19.2745 31.384C19.3392 31.3259 19.3771 31.2545 19.3883 31.1675C19.4798 30.4867 19.453 29.8103 19.3124 29.1384C19.2834 28.98 19.2053 28.8483 19.0758 28.7478ZM16.1204 29.2768C16.0936 29.2121 16.0669 29.1451 16.0356 29.0826C16.5178 28.9085 16.9553 28.8215 17.3459 28.8215C17.8526 28.8215 18.2789 28.9688 18.645 29.2701L18.6472 29.2724V29.2746C18.7186 29.6206 18.7566 29.9688 18.7611 30.3215C18.1249 29.7813 17.241 29.4331 16.1204 29.2768Z" fill="#5CE1E6"/>
<path d="M11.9753 32.3527C10.9686 33.1964 10.0334 33.6183 9.16954 33.6183C9.02222 33.6183 8.8749 33.6049 8.72981 33.5803C8.70748 33.5759 8.6874 33.5759 8.66507 33.5759C8.52445 33.5759 8.42177 33.6406 8.35927 33.7678C8.29677 33.8951 8.31016 34.0156 8.39722 34.1272C8.81463 34.6741 9.3124 35.1339 9.88829 35.5089C9.99766 35.5848 10.1204 35.6228 10.2544 35.6228C10.2789 35.6228 10.3057 35.6228 10.3325 35.6183C11.6093 35.4978 12.5579 34.5379 13.1785 32.7388C12.741 32.721 12.3392 32.5915 11.9753 32.3527ZM10.2678 34.9464H10.2655L10.2611 34.9442C9.96641 34.75 9.69186 34.5312 9.43963 34.2835C10.2722 34.2165 11.1472 33.8393 12.0468 33.1607C12.1137 33.1875 12.1807 33.2143 12.2477 33.2388C11.7454 34.308 11.0936 34.8683 10.2678 34.9464Z" fill="#5CE1E6"/>
<path d="M11.3348 30.3772C11.3348 30.6339 11.3839 30.8817 11.4821 31.1205C11.5803 31.3571 11.7209 31.5669 11.904 31.7477C12.0848 31.9308 12.2946 32.0692 12.5334 32.1696C12.7723 32.2678 13.0201 32.3169 13.2768 32.3169C13.5357 32.3169 13.7834 32.2678 14.0223 32.1696C14.2589 32.0692 14.4687 31.9308 14.6518 31.7477C14.8348 31.5669 14.9754 31.3571 15.0736 31.1205C15.1718 30.8817 15.2209 30.6339 15.2209 30.3772C15.2209 30.1205 15.1718 29.8727 15.0736 29.6361C14.9754 29.3995 14.8348 29.1897 14.6518 29.0067C14.4687 28.8259 14.2589 28.6852 14.0223 28.587C13.7834 28.4888 13.5357 28.4397 13.2768 28.4397C13.0201 28.4397 12.7723 28.4888 12.5334 28.587C12.2968 28.6852 12.087 28.8259 11.904 29.0089C11.7209 29.1897 11.5803 29.3995 11.4821 29.6361C11.3839 29.8727 11.3348 30.1205 11.3348 30.3772ZM14.5424 30.3772C14.5424 30.5446 14.5111 30.7053 14.4464 30.8616C14.3817 31.0156 14.2901 31.1518 14.1718 31.2701C14.0535 31.3884 13.9174 31.4799 13.7611 31.5424C13.6071 31.6071 13.4442 31.6384 13.2768 31.6384C13.1093 31.6384 12.9486 31.6071 12.7924 31.5424C12.6384 31.4799 12.5022 31.3884 12.3839 31.2701C12.2634 31.1518 12.1741 31.0156 12.1093 30.8616C12.0446 30.7053 12.0134 30.5446 12.0134 30.3772C12.0134 30.2098 12.0446 30.0491 12.1093 29.8951C12.1741 29.741 12.2634 29.6049 12.3839 29.4866C12.5022 29.3683 12.6384 29.2768 12.7924 29.212C12.9486 29.1495 13.1093 29.116 13.2768 29.116C13.4442 29.116 13.6071 29.1495 13.7611 29.212C13.9151 29.2768 14.0535 29.3683 14.1718 29.4866C14.2901 29.6049 14.3817 29.741 14.4464 29.8951C14.5089 30.0491 14.5424 30.2098 14.5424 30.3772Z" fill="#5CE1E6"/>
<path d="M26.9731 28.0625C27.1048 26.5291 27.5802 25.4777 28.3972 24.9063C28.5244 24.8148 28.5713 24.6942 28.5334 24.5424C28.4954 24.3907 28.3994 24.3036 28.2432 24.2835C27.9776 24.25 27.7119 24.2322 27.4418 24.2322C27.0267 24.2322 26.6159 24.2746 26.2097 24.3594C26.049 24.3884 25.9173 24.4666 25.8168 24.5938C24.9999 25.5804 25.011 26.9286 25.8481 28.6384C26.1695 28.3416 26.5445 28.1496 26.9731 28.0625ZM26.3414 25.0268L26.3436 25.0224H26.3459C26.6918 24.9509 27.0423 24.913 27.3972 24.9085C26.8548 25.5447 26.5043 26.4264 26.3481 27.5424C26.2811 27.5692 26.2164 27.5982 26.1494 27.6273C25.7476 26.5201 25.8124 25.663 26.3414 25.0268Z" fill="#5CE1E6"/>
<path d="M25.0848 30.279C25.1004 29.8438 25.2299 29.442 25.4709 29.0781C24.4799 27.9018 24.0692 26.8214 24.241 25.8415C24.2477 25.7924 24.2455 25.7411 24.2321 25.692C24.2209 25.6429 24.1964 25.6004 24.1629 25.5603C24.1317 25.5223 24.0915 25.4911 24.0446 25.471C24 25.4487 23.9509 25.4375 23.8995 25.4375C23.8214 25.4375 23.7522 25.4621 23.6897 25.5112C23.1451 25.9286 22.683 26.4241 22.3058 26.9978C22.212 27.1317 22.1763 27.279 22.1942 27.442C22.3169 28.7143 23.279 29.6607 25.0848 30.279ZM22.8727 27.3705C23.0669 27.0759 23.2879 26.8013 23.5334 26.5513C23.6026 27.3817 23.9799 28.2522 24.6607 29.1518C24.6317 29.2165 24.6071 29.2835 24.5826 29.3504C23.5111 28.8504 22.9486 28.2009 22.8705 27.3772V27.3728L22.8727 27.3705Z" fill="#5CE1E6"/>
<path d="M25.7075 31.9777C25.4106 31.6563 25.2187 31.2835 25.1294 30.8549C23.5937 30.7232 22.5379 30.25 21.9642 29.4353C21.8973 29.3371 21.8035 29.288 21.6852 29.288C21.5981 29.288 21.5223 29.3147 21.4553 29.3728C21.3906 29.4308 21.3526 29.5022 21.3414 29.5893C21.2499 30.2679 21.2745 30.9442 21.4173 31.6161C21.4441 31.7768 21.5245 31.9063 21.6517 32.0067C22.1406 32.4107 22.7164 32.6116 23.3839 32.6116C24.0647 32.6116 24.8392 32.3996 25.7075 31.9777ZM22.0825 31.4844V31.4799C22.0089 31.1339 21.9709 30.7857 21.9687 30.4331C22.6048 30.9732 23.4888 31.3237 24.6093 31.4777C24.6339 31.5447 24.6629 31.6094 24.6941 31.6741C24.212 31.846 23.7723 31.9353 23.3839 31.9353C22.8749 31.9353 22.4508 31.788 22.0848 31.4866L22.0825 31.4844Z" fill="#5CE1E6"/>
<path d="M28.7545 28.404C29.7612 27.5603 30.6965 27.1384 31.5581 27.1384C31.7076 27.1384 31.855 27.1496 32.0001 27.1764C32.0201 27.1786 32.0425 27.1808 32.0626 27.1808C32.2054 27.1786 32.3081 27.1139 32.3684 26.9866C32.4309 26.8594 32.4197 26.7411 32.3326 26.6272C31.913 26.0826 31.4175 25.6228 30.8416 25.2456C30.73 25.1697 30.6094 25.1317 30.4755 25.1317C30.4487 25.1317 30.4242 25.1339 30.3974 25.1362C29.1206 25.2567 28.1697 26.2188 27.5514 28.0179C27.9867 28.0335 28.3884 28.163 28.7545 28.404ZM30.4621 25.8103H30.4643L30.4666 25.8125C30.7634 26.0045 31.038 26.2255 31.2902 26.471C30.4576 26.538 29.5826 26.9152 28.6809 27.596C28.6161 27.567 28.5492 27.5402 28.4822 27.5156C28.9822 26.4487 29.634 25.8884 30.4621 25.8103Z" fill="#5CE1E6"/>
<path d="M27.9307 32.6942C27.7968 34.2254 27.3213 35.279 26.5066 35.8504C26.3771 35.9397 26.3325 36.0603 26.3704 36.212C26.4062 36.3661 26.5044 36.4509 26.6584 36.471C26.9262 36.5067 27.1919 36.5245 27.4597 36.5245C27.8749 36.5223 28.2879 36.4799 28.6941 36.3951C28.8548 36.3683 28.9843 36.2879 29.0847 36.1607C29.9039 35.1741 29.8928 33.8259 29.0557 32.1183C28.7343 32.4129 28.3593 32.6049 27.9307 32.6942ZM28.5624 35.7299L28.5602 35.7321H28.5579C28.2097 35.8058 27.8615 35.8437 27.5066 35.846C28.049 35.212 28.3995 34.3303 28.5557 33.212C28.6204 33.1875 28.6874 33.1585 28.7521 33.1272C29.1539 34.2366 29.0914 35.0915 28.5624 35.7299Z" fill="#5CE1E6"/>
<path d="M29.8193 30.4755C29.8014 30.913 29.6719 31.3125 29.4309 31.6764C30.4242 32.8549 30.8349 33.9331 30.663 34.913C30.6541 34.9643 30.6563 35.0134 30.6697 35.0625C30.6831 35.1116 30.7054 35.1563 30.7389 35.1942C30.7724 35.2344 30.8126 35.2634 30.8572 35.2857C30.9041 35.3058 30.9532 35.317 31.0045 35.317C31.0827 35.317 31.1518 35.2924 31.2121 35.2456C31.759 34.8281 32.221 34.3326 32.5983 33.7567C32.6898 33.6228 32.7277 33.4755 32.7077 33.3147C32.5871 32.0402 31.6228 31.096 29.8193 30.4755ZM32.0313 33.3839C31.8371 33.6808 31.6161 33.9531 31.3684 34.2054C31.3014 33.3728 30.9242 32.5022 30.2411 31.6049C30.2702 31.538 30.2969 31.4732 30.3215 31.404C31.3929 31.904 31.9532 32.5558 32.0335 33.3795V33.3817L32.0313 33.3839Z" fill="#5CE1E6"/>
<path d="M33.2499 28.7478C32.7633 28.346 32.1851 28.1451 31.52 28.1451C30.8391 28.1451 30.0624 28.355 29.1963 28.7791C29.4932 29.0983 29.6851 29.4733 29.7744 29.9018C31.3101 30.0335 32.3659 30.5067 32.9396 31.3215C33.0066 31.4197 33.0981 31.4688 33.2186 31.4666C33.3057 31.4688 33.3816 31.4398 33.4485 31.384C33.5133 31.3259 33.5512 31.2545 33.5624 31.1675C33.6539 30.4867 33.6271 29.8103 33.4865 29.1384C33.4575 28.98 33.3793 28.8483 33.2499 28.7478ZM30.2945 29.2768C30.2677 29.2121 30.2409 29.1451 30.2097 29.0826C30.6918 28.9085 31.1293 28.8215 31.52 28.8215C32.0266 28.8215 32.4508 28.9688 32.8191 29.2701L32.8213 29.2724V29.2746C32.8927 29.6206 32.9307 29.9688 32.9351 30.3215C32.2967 29.7813 31.415 29.4331 30.2945 29.2768Z" fill="#5CE1E6"/>
<path d="M26.1494 32.3527C25.1427 33.1964 24.2074 33.6183 23.3436 33.6183C23.1963 33.6183 23.049 33.6049 22.9039 33.5803C22.8816 33.5759 22.8615 33.5759 22.8391 33.5759C22.6985 33.5759 22.5958 33.6406 22.5333 33.7678C22.4731 33.8951 22.4842 34.0156 22.5713 34.1272C22.9887 34.6741 23.4865 35.1339 24.0624 35.5089C24.1717 35.5848 24.2945 35.6228 24.4284 35.6228C24.453 35.6228 24.4798 35.6228 24.5066 35.6183C25.7833 35.4978 26.732 34.5379 27.3525 32.7388C26.915 32.721 26.5133 32.5915 26.1494 32.3527ZM24.4418 34.9464H24.4396L24.4351 34.9442C24.1405 34.75 23.8659 34.5312 23.6137 34.2835C24.4463 34.2165 25.3213 33.8393 26.2208 33.1607C26.2878 33.1875 26.3548 33.2143 26.4217 33.2388C25.9195 34.308 25.2677 34.8683 24.4418 34.9464Z" fill="#5CE1E6"/>
<path d="M25.5089 30.3772C25.5089 30.6339 25.558 30.8817 25.6562 31.1205C25.7544 31.3571 25.895 31.5669 26.0781 31.7477C26.2589 31.9308 26.4687 32.0692 26.7075 32.1696C26.9464 32.2678 27.1941 32.3169 27.4508 32.3169C27.7098 32.3169 27.9575 32.2678 28.1964 32.1696C28.433 32.0714 28.6428 31.9308 28.8258 31.7477C29.0089 31.5669 29.1495 31.3571 29.2477 31.1205C29.3459 30.8817 29.395 30.6339 29.395 30.3772C29.395 30.1205 29.3459 29.8727 29.2477 29.6361C29.1495 29.3995 29.0089 29.1897 28.8258 29.0067C28.6428 28.8259 28.433 28.6852 28.1964 28.587C27.9575 28.4888 27.7098 28.4397 27.4508 28.4397C27.1941 28.4397 26.9464 28.4888 26.7075 28.587C26.4709 28.6852 26.2589 28.8259 26.0781 29.0089C25.895 29.1897 25.7544 29.3995 25.6562 29.6361C25.558 29.8727 25.5089 30.1205 25.5089 30.3772ZM28.7164 30.3772C28.7164 30.5446 28.6852 30.7053 28.6205 30.8616C28.5557 31.0156 28.4642 31.1518 28.3459 31.2701C28.2276 31.3884 28.0914 31.4799 27.9352 31.5424C27.7812 31.6071 27.6182 31.6384 27.4508 31.6384C27.2834 31.6384 27.1227 31.6071 26.9664 31.5424C26.8124 31.4799 26.6763 31.3884 26.558 31.2701C26.4374 31.1518 26.3459 31.0156 26.2834 30.8616C26.2187 30.7053 26.1874 30.5446 26.1874 30.3772C26.1874 30.2098 26.2187 30.0491 26.2834 29.8951C26.3459 29.741 26.4374 29.6049 26.558 29.4866C26.6763 29.3683 26.8124 29.2768 26.9664 29.212C27.1227 29.1495 27.2834 29.116 27.4508 29.116C27.6182 29.116 27.7812 29.1495 27.9352 29.212C28.0892 29.2768 28.2276 29.3683 28.3459 29.4866C28.4642 29.6049 28.5557 29.741 28.6205 29.8951C28.683 30.0491 28.7164 30.2098 28.7164 30.3772Z" fill="#5CE1E6"/>
<path d="M41.1474 28.0625C41.2791 26.5291 41.7546 25.4777 42.5715 24.9063C42.6987 24.8148 42.7456 24.6942 42.7077 24.5424C42.6697 24.3907 42.5737 24.3036 42.4175 24.2835C42.1519 24.25 41.884 24.2322 41.6162 24.2322C41.201 24.2322 40.7903 24.2746 40.384 24.3594C40.2233 24.3884 40.0916 24.4666 39.9912 24.5938C39.1742 25.5804 39.1831 26.9286 40.0224 28.6384C40.3438 28.3416 40.7188 28.1496 41.1474 28.0625ZM40.5157 25.0268L40.5179 25.0224H40.5202C40.8662 24.9509 41.2166 24.913 41.5693 24.9085C41.0291 25.5447 40.6764 26.4264 40.5224 27.5424C40.4554 27.5692 40.3907 27.5982 40.3237 27.6273C39.922 26.5201 39.9867 25.663 40.5157 25.0268Z" fill="#5CE1E6"/>
<path d="M39.2589 30.279C39.2745 29.8438 39.4039 29.442 39.645 29.0781C38.6517 27.9018 38.2432 26.8214 38.4129 25.8415C38.4218 25.7924 38.4196 25.7411 38.4062 25.692C38.3928 25.6429 38.3705 25.6004 38.337 25.5603C38.3057 25.5223 38.2656 25.4911 38.2187 25.471C38.1718 25.4487 38.1249 25.4375 38.0736 25.4375C37.9955 25.4375 37.9263 25.4621 37.8638 25.5112C37.3169 25.9286 36.8571 26.4241 36.4798 26.9978C36.3861 27.1317 36.3504 27.279 36.3682 27.442C36.491 28.7143 37.4531 29.6607 39.2589 30.279ZM37.0468 27.3705C37.241 27.0759 37.4598 26.8013 37.7075 26.5513C37.7767 27.3817 38.1517 28.2522 38.8348 29.1518C38.8057 29.2165 38.7789 29.2835 38.7544 29.3504C37.6852 28.8504 37.1227 28.2009 37.0446 27.3772V27.3728L37.0468 27.3705Z" fill="#5CE1E6"/>
<path d="M39.8816 31.9777C39.5847 31.6563 39.3928 31.2835 39.3035 30.8549C37.7678 30.7232 36.7119 30.25 36.1383 29.4353C36.0713 29.3371 35.9776 29.288 35.8593 29.288C35.7722 29.288 35.6941 29.3147 35.6294 29.3728C35.5646 29.4308 35.5267 29.5022 35.5155 29.5893C35.424 30.2679 35.4486 30.9442 35.5914 31.6161C35.6182 31.7768 35.6986 31.9063 35.8258 32.0067C36.3146 32.4107 36.8905 32.6116 37.5579 32.6116C38.2387 32.6116 39.0133 32.3996 39.8816 31.9777ZM36.2566 31.4844L36.2544 31.4799C36.1829 31.1339 36.145 30.7857 36.1405 30.4331C36.7789 30.9732 37.6628 31.3237 38.7834 31.4777C38.8079 31.5447 38.8369 31.6094 38.866 31.6741C38.3861 31.846 37.9463 31.9353 37.5579 31.9353C37.049 31.9353 36.6249 31.788 36.2588 31.4866L36.2566 31.4844Z" fill="#5CE1E6"/>
<path d="M42.9286 28.404C43.9353 27.5603 44.8706 27.1384 45.7322 27.1384C45.8817 27.1384 46.029 27.1496 46.1741 27.1764C46.1942 27.1786 46.2165 27.1808 46.2366 27.1808C46.3795 27.1786 46.4822 27.1139 46.5424 26.9866C46.6049 26.8594 46.5938 26.7411 46.5067 26.6272C46.0871 26.0826 45.5915 25.6228 45.0134 25.2456C44.904 25.1697 44.7835 25.1317 44.6496 25.1317C44.6228 25.1317 44.5982 25.1339 44.5714 25.1362C43.2924 25.2567 42.3438 26.2188 41.7232 28.0179C42.1607 28.0335 42.5625 28.163 42.9286 28.404ZM44.6339 25.8103H44.6384L44.6406 25.8125C44.9375 26.0045 45.2098 26.2255 45.4643 26.471C44.6317 26.538 43.7567 26.9152 42.8549 27.596C42.7902 27.567 42.7232 27.5402 42.6563 27.5156C43.1563 26.4487 43.8081 25.8884 44.6339 25.8103Z" fill="#5CE1E6"/>
<path d="M42.1049 32.6942C41.971 34.2254 41.4955 35.279 40.6808 35.8504C40.5513 35.9397 40.5067 36.0603 40.5446 36.212C40.5803 36.3661 40.6786 36.4509 40.8326 36.471C41.0982 36.5067 41.3661 36.5245 41.6339 36.5245C42.0491 36.5223 42.462 36.4799 42.8683 36.3951C43.029 36.3683 43.1585 36.2879 43.2589 36.1607C44.0759 35.1741 44.067 33.8259 43.2299 32.1183C42.9085 32.4129 42.5335 32.6049 42.1049 32.6942ZM42.7366 35.7299L42.7344 35.7321H42.7299C42.3839 35.8058 42.0357 35.8437 41.6808 35.846C42.2232 35.212 42.5736 34.3303 42.7277 33.212C42.7946 33.1875 42.8616 33.1585 42.9263 33.1272C43.3281 34.2366 43.2656 35.0915 42.7366 35.7299Z" fill="#5CE1E6"/>
<path d="M43.9932 30.4755C43.9753 30.913 43.8458 31.3125 43.6048 31.6764C44.5981 32.8549 45.0088 33.9331 44.8369 34.913C44.828 34.9643 44.8302 35.0134 44.8436 35.0625C44.857 35.1116 44.8793 35.1563 44.9128 35.1942C44.9463 35.2344 44.9865 35.2634 45.0311 35.2857C45.078 35.3058 45.1271 35.317 45.1784 35.317C45.2566 35.317 45.3257 35.2924 45.386 35.2456C45.9329 34.8281 46.3949 34.3326 46.7722 33.7567C46.8659 33.6228 46.9016 33.4755 46.8816 33.3147C46.761 32.0402 45.7967 31.096 43.9932 30.4755ZM46.2052 33.3839C46.011 33.6808 45.79 33.9531 45.5423 34.2054C45.4753 33.3728 45.0981 32.5022 44.415 31.6049C44.4441 31.538 44.4708 31.4732 44.4954 31.404C45.5668 31.904 46.1271 32.5558 46.2074 33.3795V33.3817L46.2052 33.3839Z" fill="#5CE1E6"/>
<path d="M47.4242 28.7478C46.9376 28.346 46.3594 28.1451 45.6943 28.1451C45.0112 28.1451 44.2367 28.355 43.3706 28.7791C43.6675 29.0983 43.8594 29.4733 43.9465 29.9018C45.4844 30.0335 46.5402 30.5067 47.1139 31.3215C47.1809 31.4197 47.2724 31.4688 47.3929 31.4666C47.48 31.4688 47.5559 31.4398 47.6206 31.384C47.6876 31.3259 47.7255 31.2545 47.7367 31.1675C47.826 30.4867 47.8014 29.8103 47.6608 29.1384C47.6318 28.98 47.5536 28.8483 47.4242 28.7478ZM44.4688 29.2768C44.442 29.2121 44.4152 29.1451 44.384 29.0826C44.8661 28.9085 45.3036 28.8215 45.6943 28.8215C46.201 28.8215 46.6251 28.9688 46.9934 29.2701L46.9956 29.2724V29.2746C47.067 29.6206 47.105 29.9688 47.1094 30.3215C46.4711 29.7813 45.5871 29.4331 44.4688 29.2768Z" fill="#5CE1E6"/>
<path d="M40.3237 32.3527C39.317 33.1964 38.3818 33.6183 37.5179 33.6183C37.3706 33.6183 37.2233 33.6049 37.076 33.5803C37.0559 33.5759 37.0358 33.5759 37.0135 33.5759C36.8728 33.5759 36.7702 33.6406 36.7077 33.7678C36.6452 33.8951 36.6586 34.0156 36.7456 34.1272C37.163 34.6741 37.6608 35.1339 38.2367 35.5089C38.3461 35.5848 38.4688 35.6228 38.6027 35.6228C38.6273 35.6228 38.6541 35.6228 38.6809 35.6205C39.9577 35.4978 40.9063 34.5379 41.5269 32.7388C41.0894 32.721 40.6876 32.5915 40.3237 32.3527ZM38.6161 34.9464H38.6139L38.6094 34.9442C38.3148 34.75 38.0402 34.5312 37.788 34.2835C38.6206 34.2165 39.4956 33.8393 40.3952 33.1607C40.4621 33.1875 40.5291 33.2143 40.5961 33.2388C40.0938 34.308 39.442 34.8683 38.6161 34.9464Z" fill="#5CE1E6"/>
<path d="M39.6807 30.3772C39.6807 30.6339 39.732 30.8817 39.8303 31.1205C39.9285 31.3571 40.0691 31.5669 40.2499 31.7477C40.4329 31.9308 40.6428 32.0692 40.8816 32.1696C41.1204 32.2678 41.3682 32.3169 41.6249 32.3169C41.8838 32.3169 42.1316 32.2678 42.3682 32.1696C42.607 32.0714 42.8169 31.9308 42.9999 31.7477C43.1829 31.5669 43.3236 31.3571 43.4218 31.1205C43.52 30.8817 43.5691 30.6339 43.5691 30.3772C43.5691 30.1205 43.52 29.8727 43.4218 29.6361C43.3236 29.3995 43.1829 29.1897 42.9999 29.0067C42.8169 28.8259 42.607 28.6852 42.3704 28.587C42.1316 28.4888 41.8838 28.4397 41.6249 28.4397C41.3682 28.4397 41.1204 28.4888 40.8816 28.587C40.645 28.6852 40.4329 28.8259 40.2521 29.0089C40.0691 29.1897 39.9285 29.3995 39.8303 29.6361C39.732 29.8727 39.6829 30.1205 39.6807 30.3772ZM42.8905 30.3772C42.8905 30.5446 42.8593 30.7053 42.7945 30.8616C42.7298 31.0156 42.6383 31.1518 42.52 31.2701C42.4017 31.3884 42.2655 31.4799 42.1093 31.5424C41.9553 31.6071 41.7923 31.6384 41.6249 31.6384C41.4575 31.6384 41.2968 31.6071 41.1405 31.5424C40.9865 31.4799 40.8503 31.3884 40.732 31.2701C40.6115 31.1518 40.52 31.0156 40.4575 30.8616C40.3928 30.7053 40.3615 30.5446 40.3615 30.3772C40.3615 30.2098 40.3928 30.0491 40.4575 29.8951C40.52 29.741 40.6115 29.6049 40.732 29.4866C40.8503 29.3683 40.9865 29.2768 41.1405 29.212C41.2968 29.1495 41.4575 29.116 41.6249 29.116C41.7923 29.116 41.9553 29.1495 42.1093 29.212C42.2633 29.2768 42.4017 29.3683 42.52 29.4866C42.6383 29.6049 42.7298 29.741 42.7945 29.8951C42.857 30.0491 42.8905 30.2098 42.8905 30.3772Z" fill="#5CE1E6"/>
</svg>
